<svg width="127" height="22" viewBox="0 0 127 22" fill="none" xmlns="http://www.w3.org/2000/svg">
<path d="M4.46389 17.136C3.61589 17.136 2.85589 16.992 2.18389 16.704C1.51189 16.4 0.975891 15.968 0.575891 15.408C0.191891 14.832 -0.000109315 14.136 -0.000109315 13.32C-0.000109315 12.504 0.191891 11.824 0.575891 11.28C0.975891 10.72 1.51989 10.304 2.20789 10.032C2.91189 9.74405 3.71189 9.60005 4.60789 9.60005H7.87189V8.92805C7.87189 8.36805 7.69589 7.91205 7.34389 7.56005C6.99189 7.19205 6.43189 7.00805 5.66389 7.00805C4.91189 7.00805 4.35189 7.18405 3.98389 7.53605C3.61589 7.87205 3.37589 8.31205 3.26389 8.85605L0.479891 7.92005C0.671891 7.31205 0.975891 6.76005 1.39189 6.26405C1.82389 5.75205 2.39189 5.34405 3.09589 5.04005C3.81589 4.72005 4.68789 4.56005 5.71189 4.56005C7.27989 4.56005 8.51989 4.95205 9.43189 5.73605C10.3439 6.52005 10.7999 7.65605 10.7999 9.14405V13.584C10.7999 14.064 11.0239 14.304 11.4719 14.304H12.4319V16.8H10.4159C9.82389 16.8 9.33589 16.656 8.95189 16.368C8.56789 16.08 8.37589 15.696 8.37589 15.216V15.192H7.91989C7.85589 15.384 7.71189 15.64 7.48789 15.96C7.26389 16.264 6.91189 16.536 6.43189 16.776C5.95189 17.016 5.29589 17.136 4.46389 17.136ZM4.99189 14.688C5.83989 14.688 6.52789 14.456 7.05589 13.992C7.59989 13.512 7.87189 12.88 7.87189 12.096V11.856H4.82389C4.26389 11.856 3.82389 11.976 3.50389 12.216C3.18389 12.456 3.02389 12.792 3.02389 13.224C3.02389 13.656 3.19189 14.008 3.52789 14.28C3.86389 14.552 4.35189 14.688 4.99189 14.688ZM18.8752 17.136C17.9312 17.136 17.0432 16.904 16.2112 16.44C15.3952 15.96 14.7392 15.264 14.2432 14.352C13.7472 13.44 13.4992 12.336 13.4992 11.04V10.656C13.4992 9.36005 13.7472 8.25605 14.2432 7.34405C14.7392 6.43205 15.3952 5.74405 16.2112 5.28005C17.0272 4.80005 17.9152 4.56005 18.8752 4.56005C19.5952 4.56005 20.1952 4.64805 20.6752 4.82405C21.1712 4.98405 21.5712 5.19205 21.8752 5.44805C22.1792 5.70405 22.4112 5.97605 22.5712 6.26405H23.0032V4.76837e-05H26.0272V16.8H23.0512V15.36H22.6192C22.3472 15.808 21.9232 16.216 21.3472 16.584C20.7872 16.952 19.9632 17.136 18.8752 17.136ZM19.7872 14.496C20.7152 14.496 21.4912 14.2 22.1152 13.608C22.7392 13 23.0512 12.12 23.0512 10.968V10.728C23.0512 9.57605 22.7392 8.70405 22.1152 8.11205C21.5072 7.50405 20.7312 7.20005 19.7872 7.20005C18.8592 7.20005 18.0832 7.50405 17.4592 8.11205C16.8352 8.70405 16.5232 9.57605 16.5232 10.728V10.968C16.5232 12.12 16.8352 13 17.4592 13.608C18.0832 14.2 18.8592 14.496 19.7872 14.496ZM32.7425 17.136C31.8945 17.136 31.1345 16.992 30.4625 16.704C29.7905 16.4 29.2545 15.968 28.8545 15.408C28.4705 14.832 28.2785 14.136 28.2785 13.32C28.2785 12.504 28.4705 11.824 28.8545 11.28C29.2545 10.72 29.7985 10.304 30.4865 10.032C31.1905 9.74405 31.9905 9.60005 32.8865 9.60005H36.1505V8.92805C36.1505 8.36805 35.9745 7.91205 35.6225 7.56005C35.2705 7.19205 34.7105 7.00805 33.9425 7.00805C33.1905 7.00805 32.6305 7.18405 32.2625 7.53605C31.8945 7.87205 31.6545 8.31205 31.5425 8.85605L28.7585 7.92005C28.9505 7.31205 29.2545 6.76005 29.6705 6.26405C30.1025 5.75205 30.6705 5.34405 31.3745 5.04005C32.0945 4.72005 32.9665 4.56005 33.9905 4.56005C35.5585 4.56005 36.7985 4.95205 37.7105 5.73605C38.6225 6.52005 39.0785 7.65605 39.0785 9.14405V13.584C39.0785 14.064 39.3025 14.304 39.7505 14.304H40.7105V16.8H38.6945C38.1025 16.8 37.6145 16.656 37.2305 16.368C36.8465 16.08 36.6545 15.696 36.6545 15.216V15.192H36.1985C36.1345 15.384 35.9905 15.64 35.7665 15.96C35.5425 16.264 35.1905 16.536 34.7105 16.776C34.2305 17.016 33.5745 17.136 32.7425 17.136ZM33.2705 14.688C34.1185 14.688 34.8065 14.456 35.3345 13.992C35.8785 13.512 36.1505 12.88 36.1505 12.096V11.856H33.1025C32.5425 11.856 32.1025 11.976 31.7825 12.216C31.4625 12.456 31.3025 12.792 31.3025 13.224C31.3025 13.656 31.4705 14.008 31.8065 14.28C32.1425 14.552 32.6305 14.688 33.2705 14.688ZM42.5882 16.8V4.89605H45.5642V6.19205H45.9962C46.2042 5.79205 46.5482 5.44805 47.0282 5.16005C47.5082 4.85605 48.1402 4.70405 48.9242 4.70405C49.7722 4.70405 50.4522 4.87205 50.9642 5.20805C51.4762 5.52805 51.8682 5.95205 52.1402 6.48005H52.5722C52.8442 5.96805 53.2282 5.54405 53.7242 5.20805C54.2202 4.87205 54.9242 4.70405 55.8362 4.70405C56.5722 4.70405 57.2362 4.86405 57.8282 5.18405C58.4362 5.48805 58.9162 5.96005 59.2682 6.60005C59.6362 7.22405 59.8202 8.01605 59.8202 8.97605V16.8H56.7962V9.19205C56.7962 8.53605 56.6282 8.04805 56.2922 7.72805C55.9562 7.39205 55.4842 7.22405 54.8762 7.22405C54.1882 7.22405 53.6522 7.44805 53.2682 7.89605C52.9002 8.32805 52.7162 8.95205 52.7162 9.76805V16.8H49.6922V9.19205C49.6922 8.53605 49.5242 8.04805 49.1882 7.72805C48.8522 7.39205 48.3802 7.22405 47.7722 7.22405C47.0842 7.22405 46.5482 7.44805 46.1642 7.89605C45.7962 8.32805 45.6122 8.95205 45.6122 9.76805V16.8H42.5882ZM62.7392 16.8V4.76837e-05H65.7632V9.28805H66.1952L70.1312 4.89605H74.0672L68.5712 10.656L74.2592 16.8H70.3712L66.1952 12.072H65.7632V16.8H62.7392ZM80.6502 17.136C79.4662 17.136 78.4182 16.888 77.5062 16.392C76.6102 15.88 75.9062 15.168 75.3942 14.256C74.8982 13.328 74.6502 12.24 74.6502 10.992V10.704C74.6502 9.45605 74.8982 8.37605 75.3942 7.46405C75.8902 6.53605 76.5862 5.82405 77.4822 5.32805C78.3782 4.81605 79.4182 4.56005 80.6022 4.56005C81.7702 4.56005 82.7862 4.82405 83.6502 5.35205C84.5142 5.86405 85.1862 6.58405 85.6662 7.51205C86.1462 8.42405 86.3862 9.48805 86.3862 10.704V11.736H77.7222C77.7542 12.552 78.0582 13.216 78.6342 13.728C79.2102 14.24 79.9142 14.496 80.7462 14.496C81.5942 14.496 82.2182 14.312 82.6182 13.944C83.0182 13.576 83.3222 13.168 83.5302 12.72L86.0022 14.016C85.7782 14.432 85.4502 14.888 85.0182 15.384C84.6022 15.864 84.0422 16.28 83.3382 16.632C82.6342 16.968 81.7382 17.136 80.6502 17.136ZM77.7462 9.48005H83.3142C83.2502 8.79205 82.9702 8.24005 82.4742 7.82405C81.9942 7.40805 81.3622 7.20005 80.5782 7.20005C79.7622 7.20005 79.1142 7.40805 78.6342 7.82405C78.1542 8.24005 77.8582 8.79205 77.7462 9.48005ZM90.0405 21.6V18.96H96.5205C96.9685 18.96 97.1925 18.72 97.1925 18.24V15.24H96.7605C96.6325 15.512 96.4325 15.784 96.1605 16.056C95.8885 16.328 95.5205 16.552 95.0565 16.728C94.5925 16.904 94.0005 16.992 93.2805 16.992C92.3525 16.992 91.5365 16.784 90.8325 16.368C90.1445 15.936 89.6085 15.344 89.2245 14.592C88.8405 13.84 88.6485 12.976 88.6485 12V4.89605H91.6725V11.76C91.6725 12.656 91.8885 13.328 92.3205 13.776C92.7685 14.224 93.4005 14.448 94.2165 14.448C95.1445 14.448 95.8645 14.144 96.3765 13.536C96.8885 12.912 97.1445 12.048 97.1445 10.944V4.89605H100.168V18.912C100.168 19.728 99.9285 20.376 99.4485 20.856C98.9685 21.352 98.3285 21.6 97.5285 21.6H90.0405ZM108.624 17.136C107.44 17.136 106.392 16.888 105.48 16.392C104.584 15.88 103.88 15.168 103.368 14.256C102.872 13.328 102.624 12.24 102.624 10.992V10.704C102.624 9.45605 102.872 8.37605 103.368 7.46405C103.864 6.53605 104.56 5.82405 105.456 5.32805C106.352 4.81605 107.392 4.56005 108.576 4.56005C109.744 4.56005 110.76 4.82405 111.624 5.35205C112.488 5.86405 113.16 6.58405 113.64 7.51205C114.12 8.42405 114.36 9.48805 114.36 10.704V11.736H105.696C105.728 12.552 106.032 13.216 106.608 13.728C107.184 14.24 107.888 14.496 108.72 14.496C109.568 14.496 110.192 14.312 110.592 13.944C110.992 13.576 111.296 13.168 111.504 12.72L113.976 14.016C113.752 14.432 113.424 14.888 112.992 15.384C112.576 15.864 112.016 16.28 111.312 16.632C110.608 16.968 109.712 17.136 108.624 17.136ZM105.72 9.48005H111.288C111.224 8.79205 110.944 8.24005 110.448 7.82405C109.968 7.40805 109.336 7.20005 108.552 7.20005C107.736 7.20005 107.088 7.40805 106.608 7.82405C106.128 8.24005 105.832 8.79205 105.72 9.48005ZM121.662 17.136C120.11 17.136 118.838 16.8 117.846 16.128C116.854 15.456 116.254 14.496 116.046 13.248L118.83 12.528C118.942 13.088 119.126 13.528 119.382 13.848C119.654 14.168 119.982 14.4 120.366 14.544C120.766 14.672 121.198 14.736 121.662 14.736C122.366 14.736 122.886 14.616 123.222 14.376C123.558 14.12 123.726 13.808 123.726 13.44C123.726 13.072 123.566 12.792 123.246 12.6C122.926 12.392 122.414 12.224 121.71 12.096L121.038 11.976C120.206 11.816 119.446 11.6 118.758 11.328C118.07 11.04 117.518 10.648 117.102 10.152C116.686 9.65605 116.478 9.01605 116.478 8.23205C116.478 7.04805 116.91 6.14405 117.774 5.52005C118.638 4.88005 119.774 4.56005 121.182 4.56005C122.51 4.56005 123.614 4.85605 124.494 5.44805C125.374 6.04005 125.95 6.81605 126.222 7.77605L123.414 8.64005C123.286 8.03205 123.022 7.60005 122.622 7.34405C122.238 7.08805 121.758 6.96005 121.182 6.96005C120.606 6.96005 120.166 7.06405 119.862 7.27205C119.558 7.46405 119.406 7.73605 119.406 8.08805C119.406 8.47205 119.566 8.76005 119.886 8.95205C120.206 9.12805 120.638 9.26405 121.182 9.36005L121.854 9.48005C122.75 9.64005 123.558 9.85605 124.278 10.128C125.014 10.384 125.59 10.76 126.006 11.256C126.438 11.736 126.654 12.392 126.654 13.224C126.654 14.472 126.198 15.44 125.286 16.128C124.39 16.8 123.182 17.136 121.662 17.136Z" fill="white"/>
</svg>
